# xmcd
#
# Track frame offsets: 
#        151
#        16946
#        28538
#        39397
#        53629
#        58852
#        67819
#        75155
#        84254
#        103188
#        119145
#        134260
#        151555
#        158774
#        181175
#        196381
#        221564
#        227956
#        240231
#        270254
#
# Disc length: 3808 seconds
#
# Revision: 0
# Processed by: cddbd v1.5.1PL2 Copyright (c) Steve Scherf et al.
# Submitted via: ExactAudioCopy v0.95b4
#
DISCID=f20ede14
DTITLE=John McEuen - Round Trip - Live In LA
DYEAR=1900
DGENRE=Bluegrass
TTITLE0=Finger Buster
TTITLE1=Clementi
TTITLE2=L.A. Devils's Dream
TTITLE3=Good Old Boys Texas
TTITLE4=Merle Travis Story
TTITLE5=Cannonball Rag
TTITLE6=Early Arrival
TTITLE7=From The 60's
TTITLE8=Mr. BoJangles
TTITLE9=I Am A Pilgrim
TTITLE10=Kiss
TTITLE11=Night Flight
TTITLE12=Gate Change
TTITLE13=Before You Accuse Me
TTITLE14=The Sheik Of Araby
TTITLE15=Swing To The Bop
TTITLE16=Leaving The Club
TTITLE17=I'll Be Glad When They Run Outta Gas
TTITLE18=The Goodtime Suite
TTITLE19=The Ballad Of Floyd Collins
EXTD=
EXTT0=
EXTT1=
EXTT2=
EXTT3=
EXTT4=
EXTT5=
EXTT6=
EXTT7=
EXTT8=
EXTT9=
EXTT10=
EXTT11=
EXTT12=
EXTT13=
EXTT14=
EXTT15=
EXTT16=
EXTT17=
EXTT18=
EXTT19=
PLAYORDER=
